<mxfile host="app.diagrams.net" modified="2022-12-09T21:46:45.793Z" agent="5.0 (Windows NT 10.0; Win64; x64) AppleWebKit/537.36 (KHTML, like Gecko) Chrome/108.0.0.0 Safari/537.36 Edg/108.0.1462.42" version="20.6.0" etag="PUJjqftnZsT2BfpXpAqo" type="github">
  <diagram id="k-Q7YXgcn1g6CReGvvBt" name="Page-1">
    <mxGraphModel dx="1384" dy="1992" grid="1" gridSize="10" guides="1" tooltips="1" connect="1" arrows="1" fold="1" page="1" pageScale="1" pageWidth="827" pageHeight="1169" math="0" shadow="0">
      <root>
        <mxCell id="0" />
        <mxCell id="1" parent="0" />
        <mxCell id="pJtryzGAfCbylNlpALt_-8" style="edgeStyle=orthogonalEdgeStyle;rounded=0;orthogonalLoop=1;jettySize=auto;html=1;entryX=0.5;entryY=0;entryDx=0;entryDy=0;" edge="1" parent="1" source="pJtryzGAfCbylNlpALt_-1" target="pJtryzGAfCbylNlpALt_-4">
          <mxGeometry relative="1" as="geometry" />
        </mxCell>
        <mxCell id="pJtryzGAfCbylNlpALt_-10" style="edgeStyle=orthogonalEdgeStyle;rounded=0;orthogonalLoop=1;jettySize=auto;html=1;exitX=0.5;exitY=1;exitDx=0;exitDy=0;entryX=0.5;entryY=0;entryDx=0;entryDy=0;" edge="1" parent="1" source="pJtryzGAfCbylNlpALt_-1" target="pJtryzGAfCbylNlpALt_-3">
          <mxGeometry relative="1" as="geometry" />
        </mxCell>
        <mxCell id="pJtryzGAfCbylNlpALt_-31" style="edgeStyle=orthogonalEdgeStyle;rounded=0;orthogonalLoop=1;jettySize=auto;html=1;exitX=0.5;exitY=1;exitDx=0;exitDy=0;entryX=0.5;entryY=0;entryDx=0;entryDy=0;" edge="1" parent="1" source="pJtryzGAfCbylNlpALt_-1" target="pJtryzGAfCbylNlpALt_-20">
          <mxGeometry relative="1" as="geometry" />
        </mxCell>
        <mxCell id="pJtryzGAfCbylNlpALt_-42" style="edgeStyle=orthogonalEdgeStyle;rounded=0;orthogonalLoop=1;jettySize=auto;html=1;" edge="1" parent="1" source="pJtryzGAfCbylNlpALt_-1" target="pJtryzGAfCbylNlpALt_-6">
          <mxGeometry relative="1" as="geometry">
            <Array as="points">
              <mxPoint x="467" y="-970" />
              <mxPoint x="885" y="-970" />
            </Array>
          </mxGeometry>
        </mxCell>
        <mxCell id="pJtryzGAfCbylNlpALt_-45" style="edgeStyle=orthogonalEdgeStyle;rounded=0;orthogonalLoop=1;jettySize=auto;html=1;exitX=0.5;exitY=1;exitDx=0;exitDy=0;entryX=0.5;entryY=0;entryDx=0;entryDy=0;" edge="1" parent="1" source="pJtryzGAfCbylNlpALt_-1" target="pJtryzGAfCbylNlpALt_-5">
          <mxGeometry relative="1" as="geometry">
            <Array as="points">
              <mxPoint x="467" y="-970" />
              <mxPoint x="740" y="-970" />
            </Array>
          </mxGeometry>
        </mxCell>
        <mxCell id="pJtryzGAfCbylNlpALt_-1" value="&lt;span style=&quot;font-size: 28px;&quot;&gt;Query&lt;/span&gt;" style="rounded=1;whiteSpace=wrap;html=1;fillColor=#dae8fc;gradientColor=#7ea6e0;strokeColor=#6c8ebf;" vertex="1" parent="1">
          <mxGeometry x="330" y="-1100" width="275" height="90" as="geometry" />
        </mxCell>
        <mxCell id="pJtryzGAfCbylNlpALt_-25" style="edgeStyle=orthogonalEdgeStyle;rounded=0;orthogonalLoop=1;jettySize=auto;html=1;entryX=0;entryY=0.5;entryDx=0;entryDy=0;" edge="1" parent="1" source="pJtryzGAfCbylNlpALt_-3" target="pJtryzGAfCbylNlpALt_-5">
          <mxGeometry relative="1" as="geometry" />
        </mxCell>
        <mxCell id="pJtryzGAfCbylNlpALt_-3" value="&lt;font style=&quot;font-size: 24px;&quot;&gt;Phone number&lt;/font&gt;" style="rounded=1;whiteSpace=wrap;html=1;fillColor=#f8cecc;gradientColor=#ea6b66;strokeColor=#b85450;" vertex="1" parent="1">
          <mxGeometry x="520" y="-930" width="180" height="70" as="geometry" />
        </mxCell>
        <mxCell id="pJtryzGAfCbylNlpALt_-33" style="edgeStyle=orthogonalEdgeStyle;rounded=0;orthogonalLoop=1;jettySize=auto;html=1;exitX=0.5;exitY=1;exitDx=0;exitDy=0;entryX=0;entryY=0.5;entryDx=0;entryDy=0;" edge="1" parent="1" source="pJtryzGAfCbylNlpALt_-4" target="pJtryzGAfCbylNlpALt_-20">
          <mxGeometry relative="1" as="geometry" />
        </mxCell>
        <mxCell id="pJtryzGAfCbylNlpALt_-4" value="&lt;font style=&quot;font-size: 24px;&quot;&gt;Twitter&lt;/font&gt;" style="rounded=1;whiteSpace=wrap;html=1;fillColor=#f8cecc;gradientColor=#ea6b66;strokeColor=#b85450;" vertex="1" parent="1">
          <mxGeometry x="238" y="-930" width="182" height="70" as="geometry" />
        </mxCell>
        <mxCell id="pJtryzGAfCbylNlpALt_-43" style="edgeStyle=orthogonalEdgeStyle;rounded=0;orthogonalLoop=1;jettySize=auto;html=1;exitX=0.5;exitY=1;exitDx=0;exitDy=0;entryX=1;entryY=0.5;entryDx=0;entryDy=0;" edge="1" parent="1" source="pJtryzGAfCbylNlpALt_-5" target="pJtryzGAfCbylNlpALt_-20">
          <mxGeometry relative="1" as="geometry" />
        </mxCell>
        <mxCell id="pJtryzGAfCbylNlpALt_-5" value="&lt;span style=&quot;font-size: 24px;&quot;&gt;UPI&lt;/span&gt;&lt;span style=&quot;color: rgba(0, 0, 0, 0); font-family: monospace; font-size: 0px; text-align: start;&quot;&gt;%3CmxGraphModel%3E%3Croot%3E%3CmxCell%20id%3D%220%22%2F%3E%3CmxCell%20id%3D%221%22%20parent%3D%220%22%2F%3E%3CmxCell%20id%3D%222%22%20value%3D%22%26lt%3Bfont%20style%3D%26quot%3Bfont-size%3A%2024px%3B%26quot%3B%26gt%3BEmail%26lt%3B%2Ffont%26gt%3B%22%20style%3D%22rounded%3D1%3BwhiteSpace%3Dwrap%3Bhtml%3D1%3BfillColor%3D%23f8cecc%3BgradientColor%3D%23ea6b66%3BstrokeColor%3D%23b85450%3B%22%20vertex%3D%221%22%20parent%3D%221%22%3E%3CmxGeometry%20x%3D%22220%22%20y%3D%22-930%22%20width%3D%22210%22%20height%3D%22100%22%20as%3D%22geometry%22%2F%3E%3C%2FmxCell%3E%3C%2Froot%3E%3C%2FmxGraphModel%3E&lt;/span&gt;" style="rounded=1;whiteSpace=wrap;html=1;fillColor=#f8cecc;gradientColor=#ea6b66;strokeColor=#b85450;" vertex="1" parent="1">
          <mxGeometry x="640" y="-830" width="200" height="60" as="geometry" />
        </mxCell>
        <mxCell id="pJtryzGAfCbylNlpALt_-26" style="edgeStyle=orthogonalEdgeStyle;rounded=0;orthogonalLoop=1;jettySize=auto;html=1;entryX=1;entryY=0.5;entryDx=0;entryDy=0;" edge="1" parent="1" source="pJtryzGAfCbylNlpALt_-6" target="pJtryzGAfCbylNlpALt_-5">
          <mxGeometry relative="1" as="geometry" />
        </mxCell>
        <mxCell id="pJtryzGAfCbylNlpALt_-39" style="edgeStyle=orthogonalEdgeStyle;rounded=0;orthogonalLoop=1;jettySize=auto;html=1;exitX=0.75;exitY=1;exitDx=0;exitDy=0;entryX=1;entryY=0.75;entryDx=0;entryDy=0;" edge="1" parent="1" source="pJtryzGAfCbylNlpALt_-6" target="pJtryzGAfCbylNlpALt_-20">
          <mxGeometry relative="1" as="geometry" />
        </mxCell>
        <mxCell id="pJtryzGAfCbylNlpALt_-6" value="&lt;span style=&quot;font-size: 24px;&quot;&gt;Email&lt;/span&gt;" style="rounded=1;whiteSpace=wrap;html=1;fillColor=#f8cecc;gradientColor=#ea6b66;strokeColor=#b85450;" vertex="1" parent="1">
          <mxGeometry x="790" y="-930" width="190" height="70" as="geometry" />
        </mxCell>
        <mxCell id="pJtryzGAfCbylNlpALt_-24" style="edgeStyle=orthogonalEdgeStyle;rounded=0;orthogonalLoop=1;jettySize=auto;html=1;" edge="1" parent="1" source="pJtryzGAfCbylNlpALt_-20" target="pJtryzGAfCbylNlpALt_-23">
          <mxGeometry relative="1" as="geometry" />
        </mxCell>
        <mxCell id="pJtryzGAfCbylNlpALt_-40" style="edgeStyle=orthogonalEdgeStyle;rounded=0;orthogonalLoop=1;jettySize=auto;html=1;exitX=0.75;exitY=0;exitDx=0;exitDy=0;entryX=0;entryY=0.75;entryDx=0;entryDy=0;" edge="1" parent="1" source="pJtryzGAfCbylNlpALt_-20" target="pJtryzGAfCbylNlpALt_-5">
          <mxGeometry relative="1" as="geometry" />
        </mxCell>
        <mxCell id="pJtryzGAfCbylNlpALt_-20" value="&lt;span style=&quot;font-size: 24px;&quot;&gt;Username&lt;/span&gt;" style="rounded=1;whiteSpace=wrap;html=1;fillColor=#f8cecc;gradientColor=#ea6b66;strokeColor=#b85450;" vertex="1" parent="1">
          <mxGeometry x="374.38" y="-740" width="186.25" height="64" as="geometry" />
        </mxCell>
        <mxCell id="pJtryzGAfCbylNlpALt_-44" style="edgeStyle=orthogonalEdgeStyle;rounded=0;orthogonalLoop=1;jettySize=auto;html=1;exitX=0;exitY=0.5;exitDx=0;exitDy=0;entryX=0;entryY=0.5;entryDx=0;entryDy=0;" edge="1" parent="1" source="pJtryzGAfCbylNlpALt_-23" target="pJtryzGAfCbylNlpALt_-1">
          <mxGeometry relative="1" as="geometry">
            <Array as="points">
              <mxPoint x="210" y="-570" />
              <mxPoint x="210" y="-1055" />
            </Array>
          </mxGeometry>
        </mxCell>
        <mxCell id="pJtryzGAfCbylNlpALt_-23" value="&lt;span style=&quot;font-size: 20px;&quot;&gt;Unique list of derived Usernames&lt;/span&gt;" style="rounded=1;whiteSpace=wrap;html=1;fillColor=#e6d0de;gradientColor=#d5739d;strokeColor=#996185;" vertex="1" parent="1">
          <mxGeometry x="328.76" y="-620" width="277.5" height="100" as="geometry" />
        </mxCell>
        <mxCell id="pJtryzGAfCbylNlpALt_-46" value="&lt;font style=&quot;font-size: 18px;&quot;&gt;Search Type: Live Search, Periodic Search,&amp;nbsp;Scheduled Search, Recorded Search&lt;/font&gt;" style="text;html=1;strokeColor=none;fillColor=none;align=center;verticalAlign=middle;whiteSpace=wrap;rounded=0;" vertex="1" parent="1">
          <mxGeometry x="630" y="-515" width="360" height="50" as="geometry" />
        </mxCell>
        <mxCell id="pJtryzGAfCbylNlpALt_-47" value="&lt;font style=&quot;font-size: 18px;&quot;&gt;SID, Timestamp, Search Query,&lt;br&gt;Search Type, Search Result&lt;/font&gt;" style="text;html=1;strokeColor=none;fillColor=none;align=center;verticalAlign=middle;whiteSpace=wrap;rounded=0;fontSize=24;" vertex="1" parent="1">
          <mxGeometry x="210" y="-510" width="270" height="40" as="geometry" />
        </mxCell>
      </root>
    </mxGraphModel>
  </diagram>
</mxfile>
